General

Complete name                    : Kill Bill Vol 2 (2004) [Exclusive] 720p BRRip (6Ch) (Dual Audio) [Hindi-Eng] ~ crazyboy
Format                           : Matroska
File size                        : 2.91 GiB
Duration                         : 2h 16mn
Overall bit rate                 : 3 042 Kbps
Encoded date                     : UTC 2011-06-07 19:33:42
Writing application              : mkvmerge v4.7.0 ('Just Like You Imagined') built on Apr 21 2011 01:13:14
Writing library                  : libebml v1.2.0 + libmatroska v1.1.0


Video

ID                               : 1
Format                           : AVC
Format/Info                      : Advanced Video Codec
Format profile                   : High@L4.1
Format settings, CABAC           : Yes
Format settings, ReFrames        : 4 frames
Format settings, GOP             : N=1
Muxing mode                      : Header stripping
Codec ID                         : V_MPEG4/ISO/AVC
Duration                         : 2h 16mn
Bit rate                         : 2 405 Kbps
Width                            : 1 280 pixels
Height                           : 534 pixels
Display aspect ratio             : 2.35:1
Frame rate                       : 23.976 fps
Color space                      : YUV
Chroma subsampling               : 4:2:0
Bit depth                        : 8 bits
Scan type                        : Progressive
Bits/(Pixel*Frame)               : 0.147
Stream size                      : 2.30 GiB (79%)
Writing library                  : x264 core 67 r1171M 2c7cb4c
Language                         : English


Audio #1

ID                               : 2
Format                           : AC-3
Format/Info                      : Audio Coding 3
Mode extension                   : CM (complete main)
Muxing mode                      : Header stripping
Codec ID                         : A_AC3
Duration                         : 2h 16mn
Bit rate mode                    : Constant
Bit rate                         : 192 Kbps
Channel(s)                       : 6 channels
Channel positions                : Front: L C R, Side: L R, LFE
Sampling rate                    : 48.0 KHz
Bit depth                        : 16 bits
Compression mode                 : Lossy
Stream size                      : 188 MiB (6%)
Title                            : crazyboy
Language                         : Hindi


Audio #2

ID                               : 3
Format                           : AC-3
Format/Info                      : Audio Coding 3
Mode extension                   : CM (complete main)
Muxing mode                      : Header stripping
Codec ID                         : A_AC3
Duration                         : 2h 16mn
Bit rate mode                    : Constant
Bit rate                         : 384 Kbps
Channel(s)                       : 6 channels
Channel positions                : Front: L C R, Side: L R, LFE
Sampling rate                    : 48.0 KHz
Bit depth                        : 16 bits
Compression mode                 : Lossy
Stream size                      : 376 MiB (13%)
Title                            : crazyboy
Language                         : English


Screenshots...



[img]http://www.leetleech.org/images/19739754374005532818.png[/img]

[img]http://www.leetleech.org/images/58198797334188208367.png[/img]

[img]http://www.leetleech.org/images/30790445701767773542.png[/img]

[img]http://www.leetleech.org/images/64072258386819847178.png[/img]

[img]http://www.leetleech.org/images/43964092333818279388.png[/img]
